<svg width="182" height="222" viewBox="0 0 182 222" fill="none" xmlns="http://www.w3.org/2000/svg">
<g id="Group 8">
<rect id="Rectangle" x="91" y="131.016" width="91" height="90.9836" transform="rotate(-180 91 131.016)" fill="#2C6269"/>
<path id="Combined Shape Copy" fill-rule="evenodd" clip-rule="evenodd" d="M91 222C141.258 222 182 181.265 182 131.016C182 80.7675 141.258 40.0328 91 40.0328C40.7421 40.0328 0 80.7675 0 131.016C0 181.265 40.7421 222 91 222ZM91 161.041C107.585 161.041 121.03 147.598 121.03 131.016C121.03 114.434 107.585 100.992 91 100.992C74.4149 100.992 60.97 114.434 60.97 131.016C60.97 147.598 74.4149 161.041 91 161.041Z" fill="#004047"/>
<path id="Combined Shape" fill-rule="evenodd" clip-rule="evenodd" d="M91 90.9836H0V94.623H91V90.9836ZM91 98.2623H0V101.902H91V98.2623ZM0 105.541H91V109.18H0V105.541ZM91 112.82H0V116.459H91V112.82ZM0 120.098H91V123.738H0V120.098ZM91 127.377H0V131.016H91V127.377Z" fill="#F67E7E"/>
<path id="Combined Shape_2" fill-rule="evenodd" clip-rule="evenodd" d="M0 0H3.64V3.63934H0V0ZM10.01 0H6.36997V3.63934H10.01V0ZM10.0099 7.27869H6.36994V10.918H10.0099V7.27869ZM6.36994 14.5574H10.0099V18.1967H6.36994V14.5574ZM10.0099 21.8361H6.36994V25.4754H10.0099V21.8361ZM6.36994 29.1148H10.0099V32.7541H6.36994V29.1148ZM10.0099 36.3934H6.36994V40.0328H10.0099V36.3934ZM12.7401 0H16.3801V3.63934H12.7401V0ZM12.74 7.27869H16.38V10.918H12.74V7.27869ZM16.38 14.5574H12.74V18.1967H16.38V14.5574ZM12.74 21.8361H16.38V25.4754H12.74V21.8361ZM16.38 29.1148H12.74V32.7541H16.38V29.1148ZM12.74 36.3934H16.38V40.0328H12.74V36.3934ZM0 7.27869H3.64V10.918H0V7.27869ZM19.1099 0H22.7499V3.63934H19.1099V0ZM19.11 7.27869H22.75V10.918H19.11V7.27869ZM22.75 14.5574H19.11V18.1967H22.75V14.5574ZM19.11 21.8361H22.75V25.4754H19.11V21.8361ZM22.75 29.1148H19.11V32.7541H22.75V29.1148ZM19.11 36.3934H22.75V40.0328H19.11V36.3934ZM0 14.5574H3.64V18.1967H0V14.5574ZM25.48 0H29.12V3.63934H25.48V0ZM25.48 7.27869H29.12V10.918H25.48V7.27869ZM29.12 14.5574H25.48V18.1967H29.12V14.5574ZM25.48 21.8361H29.12V25.4754H25.48V21.8361ZM29.12 29.1148H25.48V32.7541H29.12V29.1148ZM25.48 36.3934H29.12V40.0328H25.48V36.3934ZM0 21.8361H3.64V25.4754H0V21.8361ZM31.85 0H35.49V3.63934H31.85V0ZM31.85 7.27869H35.49V10.918H31.85V7.27869ZM35.49 14.5574H31.85V18.1967H35.49V14.5574ZM31.85 21.8361H35.49V25.4754H31.85V21.8361ZM35.49 29.1148H31.85V32.7541H35.49V29.1148ZM31.85 36.3934H35.49V40.0328H31.85V36.3934ZM0 29.1148H3.64V32.7541H0V29.1148ZM38.22 0H41.86V3.63934H38.22V0ZM38.22 7.27869H41.86V10.918H38.22V7.27869ZM41.86 14.5574H38.22V18.1967H41.86V14.5574ZM38.22 21.8361H41.86V25.4754H38.22V21.8361ZM41.86 29.1148H38.22V32.7541H41.86V29.1148ZM38.22 36.3934H41.86V40.0328H38.22V36.3934ZM0 36.3934H3.64V40.0328H0V36.3934ZM44.59 0H48.23V3.63934H44.59V0ZM44.59 7.27869H48.23V10.918H44.59V7.27869ZM48.23 14.5574H44.59V18.1967H48.23V14.5574ZM44.59 21.8361H48.23V25.4754H44.59V21.8361ZM48.23 29.1148H44.59V32.7541H48.23V29.1148ZM44.59 36.3934H48.23V40.0328H44.59V36.3934Z" fill="#79C8C7"/>
</g>
</svg>
